<mxfile host="app.diagrams.net" agent="Mozilla/5.0 (X11; Ubuntu; Linux x86_64; rv:131.0) Gecko/20100101 Firefox/131.0" version="24.7.17">
  <diagram name="Page-1" id="2toNjIWomYHwG9U7zmLJ">
    <mxGraphModel dx="1364" dy="758" grid="1" gridSize="10" guides="1" tooltips="1" connect="1" arrows="1" fold="1" page="1" pageScale="1" pageWidth="850" pageHeight="1100" math="0" shadow="0">
      <root>
        <mxCell id="0" />
        <mxCell id="1" parent="0" />
        <mxCell id="lbHIWRgdnRPEPSIfCZuF-1" value="R0" style="rounded=0;whiteSpace=wrap;html=1;" vertex="1" parent="1">
          <mxGeometry x="40" y="160" width="40" height="80" as="geometry" />
        </mxCell>
        <mxCell id="lbHIWRgdnRPEPSIfCZuF-2" value="L0" style="rounded=0;whiteSpace=wrap;html=1;" vertex="1" parent="1">
          <mxGeometry x="40" y="240" width="40" height="80" as="geometry" />
        </mxCell>
        <mxCell id="lbHIWRgdnRPEPSIfCZuF-3" value="R1" style="rounded=0;whiteSpace=wrap;html=1;" vertex="1" parent="1">
          <mxGeometry x="200" y="160" width="40" height="80" as="geometry" />
        </mxCell>
        <mxCell id="lbHIWRgdnRPEPSIfCZuF-4" value="L1" style="rounded=0;whiteSpace=wrap;html=1;" vertex="1" parent="1">
          <mxGeometry x="200" y="240" width="40" height="80" as="geometry" />
        </mxCell>
        <mxCell id="lbHIWRgdnRPEPSIfCZuF-5" value="R2" style="rounded=0;whiteSpace=wrap;html=1;" vertex="1" parent="1">
          <mxGeometry x="360" y="160" width="40" height="80" as="geometry" />
        </mxCell>
        <mxCell id="lbHIWRgdnRPEPSIfCZuF-6" value="L2" style="rounded=0;whiteSpace=wrap;html=1;" vertex="1" parent="1">
          <mxGeometry x="360" y="240" width="40" height="80" as="geometry" />
        </mxCell>
        <mxCell id="lbHIWRgdnRPEPSIfCZuF-7" value="R_d-1" style="rounded=0;whiteSpace=wrap;html=1;" vertex="1" parent="1">
          <mxGeometry x="520" y="160" width="40" height="80" as="geometry" />
        </mxCell>
        <mxCell id="lbHIWRgdnRPEPSIfCZuF-8" value="L_d-1" style="rounded=0;whiteSpace=wrap;html=1;" vertex="1" parent="1">
          <mxGeometry x="520" y="240" width="40" height="80" as="geometry" />
        </mxCell>
        <mxCell id="lbHIWRgdnRPEPSIfCZuF-9" value="R_d" style="rounded=0;whiteSpace=wrap;html=1;" vertex="1" parent="1">
          <mxGeometry x="680" y="160" width="40" height="80" as="geometry" />
        </mxCell>
        <mxCell id="lbHIWRgdnRPEPSIfCZuF-10" value="L_d" style="rounded=0;whiteSpace=wrap;html=1;" vertex="1" parent="1">
          <mxGeometry x="680" y="240" width="40" height="80" as="geometry" />
        </mxCell>
        <mxCell id="lbHIWRgdnRPEPSIfCZuF-11" value="" style="shape=waypoint;sketch=0;fillStyle=solid;size=6;pointerEvents=1;points=[];fillColor=none;resizable=0;rotatable=0;perimeter=centerPerimeter;snapToPoint=1;" vertex="1" parent="1">
          <mxGeometry x="425" y="230" width="20" height="20" as="geometry" />
        </mxCell>
        <mxCell id="lbHIWRgdnRPEPSIfCZuF-12" value="" style="shape=waypoint;sketch=0;fillStyle=solid;size=6;pointerEvents=1;points=[];fillColor=none;resizable=0;rotatable=0;perimeter=centerPerimeter;snapToPoint=1;" vertex="1" parent="1">
          <mxGeometry x="445" y="230" width="20" height="20" as="geometry" />
        </mxCell>
        <mxCell id="lbHIWRgdnRPEPSIfCZuF-13" value="" style="shape=waypoint;sketch=0;fillStyle=solid;size=6;pointerEvents=1;points=[];fillColor=none;resizable=0;rotatable=0;perimeter=centerPerimeter;snapToPoint=1;" vertex="1" parent="1">
          <mxGeometry x="465" y="230" width="20" height="20" as="geometry" />
        </mxCell>
        <mxCell id="lbHIWRgdnRPEPSIfCZuF-14" value="&lt;div&gt;Given functions: f_1, ..., f_d: {0, 1}^n -&amp;gt; {0, 1}^n&lt;/div&gt;&lt;div&gt;&lt;br&gt;&lt;/div&gt;&lt;div&gt;Goal: build invertible function F: {0, 1}^2n -&amp;gt; {0, 1}^2n&lt;br&gt;&lt;/div&gt;" style="text;html=1;align=left;verticalAlign=middle;whiteSpace=wrap;rounded=0;fillColor=#ffe6cc;strokeColor=#d79b00;" vertex="1" parent="1">
          <mxGeometry x="40" y="20" width="680" height="90" as="geometry" />
        </mxCell>
        <mxCell id="lbHIWRgdnRPEPSIfCZuF-15" value="f_1" style="ellipse;whiteSpace=wrap;html=1;aspect=fixed;" vertex="1" parent="1">
          <mxGeometry x="120" y="220" width="40" height="40" as="geometry" />
        </mxCell>
        <mxCell id="lbHIWRgdnRPEPSIfCZuF-17" value="" style="endArrow=classic;html=1;rounded=0;exitX=1;exitY=0.25;exitDx=0;exitDy=0;entryX=0;entryY=0.75;entryDx=0;entryDy=0;" edge="1" parent="1" source="lbHIWRgdnRPEPSIfCZuF-1" target="lbHIWRgdnRPEPSIfCZuF-4">
          <mxGeometry width="50" height="50" relative="1" as="geometry">
            <mxPoint x="360" y="360" as="sourcePoint" />
            <mxPoint x="410" y="310" as="targetPoint" />
            <Array as="points">
              <mxPoint x="170" y="180" />
            </Array>
          </mxGeometry>
        </mxCell>
        <mxCell id="lbHIWRgdnRPEPSIfCZuF-18" value="" style="endArrow=classic;html=1;rounded=0;exitX=1;exitY=0.75;exitDx=0;exitDy=0;" edge="1" parent="1" source="lbHIWRgdnRPEPSIfCZuF-2">
          <mxGeometry width="50" height="50" relative="1" as="geometry">
            <mxPoint x="360" y="360" as="sourcePoint" />
            <mxPoint x="120" y="300" as="targetPoint" />
          </mxGeometry>
        </mxCell>
        <mxCell id="lbHIWRgdnRPEPSIfCZuF-19" value="" style="endArrow=classic;html=1;rounded=0;entryX=0.5;entryY=0;entryDx=0;entryDy=0;" edge="1" parent="1" target="lbHIWRgdnRPEPSIfCZuF-15">
          <mxGeometry width="50" height="50" relative="1" as="geometry">
            <mxPoint x="140" y="180" as="sourcePoint" />
            <mxPoint x="410" y="310" as="targetPoint" />
          </mxGeometry>
        </mxCell>
        <mxCell id="lbHIWRgdnRPEPSIfCZuF-20" value="" style="shape=orEllipse;perimeter=ellipsePerimeter;whiteSpace=wrap;html=1;backgroundOutline=1;" vertex="1" parent="1">
          <mxGeometry x="120" y="280" width="40" height="40" as="geometry" />
        </mxCell>
        <mxCell id="lbHIWRgdnRPEPSIfCZuF-21" value="" style="endArrow=classic;html=1;rounded=0;exitX=1;exitY=0.5;exitDx=0;exitDy=0;entryX=0;entryY=0.25;entryDx=0;entryDy=0;" edge="1" parent="1" source="lbHIWRgdnRPEPSIfCZuF-20" target="lbHIWRgdnRPEPSIfCZuF-3">
          <mxGeometry width="50" height="50" relative="1" as="geometry">
            <mxPoint x="360" y="360" as="sourcePoint" />
            <mxPoint x="410" y="310" as="targetPoint" />
            <Array as="points">
              <mxPoint x="170" y="300" />
            </Array>
          </mxGeometry>
        </mxCell>
        <mxCell id="lbHIWRgdnRPEPSIfCZuF-22" value="" style="endArrow=classic;html=1;rounded=0;exitX=0.5;exitY=1;exitDx=0;exitDy=0;entryX=0.5;entryY=0;entryDx=0;entryDy=0;" edge="1" parent="1" source="lbHIWRgdnRPEPSIfCZuF-15" target="lbHIWRgdnRPEPSIfCZuF-20">
          <mxGeometry width="50" height="50" relative="1" as="geometry">
            <mxPoint x="360" y="360" as="sourcePoint" />
            <mxPoint x="410" y="310" as="targetPoint" />
          </mxGeometry>
        </mxCell>
        <mxCell id="lbHIWRgdnRPEPSIfCZuF-23" value="n - bits" style="text;html=1;align=center;verticalAlign=middle;whiteSpace=wrap;rounded=0;rotation=90;" vertex="1" parent="1">
          <mxGeometry x="-10" y="185" width="60" height="30" as="geometry" />
        </mxCell>
        <mxCell id="lbHIWRgdnRPEPSIfCZuF-24" value="n - bits" style="text;html=1;align=center;verticalAlign=middle;whiteSpace=wrap;rounded=0;rotation=90;" vertex="1" parent="1">
          <mxGeometry x="-10" y="265" width="60" height="30" as="geometry" />
        </mxCell>
        <mxCell id="lbHIWRgdnRPEPSIfCZuF-25" value="f_2" style="ellipse;whiteSpace=wrap;html=1;aspect=fixed;" vertex="1" parent="1">
          <mxGeometry x="280" y="220" width="40" height="40" as="geometry" />
        </mxCell>
        <mxCell id="lbHIWRgdnRPEPSIfCZuF-26" value="" style="endArrow=classic;html=1;rounded=0;exitX=1;exitY=0.25;exitDx=0;exitDy=0;entryX=0;entryY=0.75;entryDx=0;entryDy=0;" edge="1" parent="1">
          <mxGeometry width="50" height="50" relative="1" as="geometry">
            <mxPoint x="240" y="180" as="sourcePoint" />
            <mxPoint x="360" y="300" as="targetPoint" />
            <Array as="points">
              <mxPoint x="330" y="180" />
            </Array>
          </mxGeometry>
        </mxCell>
        <mxCell id="lbHIWRgdnRPEPSIfCZuF-27" value="" style="endArrow=classic;html=1;rounded=0;exitX=1;exitY=0.75;exitDx=0;exitDy=0;" edge="1" parent="1">
          <mxGeometry width="50" height="50" relative="1" as="geometry">
            <mxPoint x="240" y="300" as="sourcePoint" />
            <mxPoint x="280" y="300" as="targetPoint" />
          </mxGeometry>
        </mxCell>
        <mxCell id="lbHIWRgdnRPEPSIfCZuF-28" value="" style="endArrow=classic;html=1;rounded=0;entryX=0.5;entryY=0;entryDx=0;entryDy=0;" edge="1" parent="1" target="lbHIWRgdnRPEPSIfCZuF-25">
          <mxGeometry width="50" height="50" relative="1" as="geometry">
            <mxPoint x="300" y="180" as="sourcePoint" />
            <mxPoint x="570" y="310" as="targetPoint" />
          </mxGeometry>
        </mxCell>
        <mxCell id="lbHIWRgdnRPEPSIfCZuF-29" value="" style="shape=orEllipse;perimeter=ellipsePerimeter;whiteSpace=wrap;html=1;backgroundOutline=1;" vertex="1" parent="1">
          <mxGeometry x="280" y="280" width="40" height="40" as="geometry" />
        </mxCell>
        <mxCell id="lbHIWRgdnRPEPSIfCZuF-30" value="" style="endArrow=classic;html=1;rounded=0;exitX=1;exitY=0.5;exitDx=0;exitDy=0;entryX=0;entryY=0.25;entryDx=0;entryDy=0;" edge="1" parent="1" source="lbHIWRgdnRPEPSIfCZuF-29">
          <mxGeometry width="50" height="50" relative="1" as="geometry">
            <mxPoint x="520" y="360" as="sourcePoint" />
            <mxPoint x="360" y="180" as="targetPoint" />
            <Array as="points">
              <mxPoint x="330" y="300" />
            </Array>
          </mxGeometry>
        </mxCell>
        <mxCell id="lbHIWRgdnRPEPSIfCZuF-31" value="" style="endArrow=classic;html=1;rounded=0;exitX=0.5;exitY=1;exitDx=0;exitDy=0;entryX=0.5;entryY=0;entryDx=0;entryDy=0;" edge="1" parent="1" source="lbHIWRgdnRPEPSIfCZuF-25" target="lbHIWRgdnRPEPSIfCZuF-29">
          <mxGeometry width="50" height="50" relative="1" as="geometry">
            <mxPoint x="520" y="360" as="sourcePoint" />
            <mxPoint x="570" y="310" as="targetPoint" />
          </mxGeometry>
        </mxCell>
        <mxCell id="lbHIWRgdnRPEPSIfCZuF-32" value="f_d" style="ellipse;whiteSpace=wrap;html=1;aspect=fixed;" vertex="1" parent="1">
          <mxGeometry x="600" y="220" width="40" height="40" as="geometry" />
        </mxCell>
        <mxCell id="lbHIWRgdnRPEPSIfCZuF-33" value="" style="endArrow=classic;html=1;rounded=0;exitX=1;exitY=0.25;exitDx=0;exitDy=0;entryX=0;entryY=0.75;entryDx=0;entryDy=0;" edge="1" parent="1">
          <mxGeometry width="50" height="50" relative="1" as="geometry">
            <mxPoint x="560" y="180" as="sourcePoint" />
            <mxPoint x="680" y="300" as="targetPoint" />
            <Array as="points">
              <mxPoint x="650" y="180" />
            </Array>
          </mxGeometry>
        </mxCell>
        <mxCell id="lbHIWRgdnRPEPSIfCZuF-34" value="" style="endArrow=classic;html=1;rounded=0;exitX=1;exitY=0.75;exitDx=0;exitDy=0;" edge="1" parent="1">
          <mxGeometry width="50" height="50" relative="1" as="geometry">
            <mxPoint x="560" y="300" as="sourcePoint" />
            <mxPoint x="600" y="300" as="targetPoint" />
          </mxGeometry>
        </mxCell>
        <mxCell id="lbHIWRgdnRPEPSIfCZuF-35" value="" style="endArrow=classic;html=1;rounded=0;entryX=0.5;entryY=0;entryDx=0;entryDy=0;" edge="1" parent="1" target="lbHIWRgdnRPEPSIfCZuF-32">
          <mxGeometry width="50" height="50" relative="1" as="geometry">
            <mxPoint x="620" y="180" as="sourcePoint" />
            <mxPoint x="890" y="310" as="targetPoint" />
          </mxGeometry>
        </mxCell>
        <mxCell id="lbHIWRgdnRPEPSIfCZuF-36" value="" style="shape=orEllipse;perimeter=ellipsePerimeter;whiteSpace=wrap;html=1;backgroundOutline=1;" vertex="1" parent="1">
          <mxGeometry x="600" y="280" width="40" height="40" as="geometry" />
        </mxCell>
        <mxCell id="lbHIWRgdnRPEPSIfCZuF-37" value="" style="endArrow=classic;html=1;rounded=0;exitX=1;exitY=0.5;exitDx=0;exitDy=0;entryX=0;entryY=0.25;entryDx=0;entryDy=0;" edge="1" parent="1" source="lbHIWRgdnRPEPSIfCZuF-36">
          <mxGeometry width="50" height="50" relative="1" as="geometry">
            <mxPoint x="840" y="360" as="sourcePoint" />
            <mxPoint x="680" y="180" as="targetPoint" />
            <Array as="points">
              <mxPoint x="650" y="300" />
            </Array>
          </mxGeometry>
        </mxCell>
        <mxCell id="lbHIWRgdnRPEPSIfCZuF-38" value="" style="endArrow=classic;html=1;rounded=0;exitX=0.5;exitY=1;exitDx=0;exitDy=0;entryX=0.5;entryY=0;entryDx=0;entryDy=0;" edge="1" parent="1" source="lbHIWRgdnRPEPSIfCZuF-32" target="lbHIWRgdnRPEPSIfCZuF-36">
          <mxGeometry width="50" height="50" relative="1" as="geometry">
            <mxPoint x="840" y="360" as="sourcePoint" />
            <mxPoint x="890" y="310" as="targetPoint" />
          </mxGeometry>
        </mxCell>
        <mxCell id="lbHIWRgdnRPEPSIfCZuF-39" value="Input" style="text;html=1;align=center;verticalAlign=middle;whiteSpace=wrap;rounded=0;fillColor=#f8cecc;strokeColor=#b85450;" vertex="1" parent="1">
          <mxGeometry x="30" y="330" width="60" height="30" as="geometry" />
        </mxCell>
        <mxCell id="lbHIWRgdnRPEPSIfCZuF-40" value="Output" style="text;html=1;align=center;verticalAlign=middle;whiteSpace=wrap;rounded=0;fillColor=#e1d5e7;strokeColor=#9673a6;" vertex="1" parent="1">
          <mxGeometry x="670" y="330" width="60" height="30" as="geometry" />
        </mxCell>
        <mxCell id="lbHIWRgdnRPEPSIfCZuF-84" style="edgeStyle=orthogonalEdgeStyle;rounded=0;orthogonalLoop=1;jettySize=auto;html=1;exitX=1;exitY=0.25;exitDx=0;exitDy=0;entryX=0.5;entryY=1;entryDx=0;entryDy=0;" edge="1" parent="1" source="lbHIWRgdnRPEPSIfCZuF-41" target="lbHIWRgdnRPEPSIfCZuF-58">
          <mxGeometry relative="1" as="geometry" />
        </mxCell>
        <mxCell id="lbHIWRgdnRPEPSIfCZuF-41" value="Rd" style="rounded=0;whiteSpace=wrap;html=1;" vertex="1" parent="1">
          <mxGeometry x="40" y="440" width="40" height="80" as="geometry" />
        </mxCell>
        <mxCell id="lbHIWRgdnRPEPSIfCZuF-42" value="Ld" style="rounded=0;whiteSpace=wrap;html=1;" vertex="1" parent="1">
          <mxGeometry x="40" y="520" width="40" height="80" as="geometry" />
        </mxCell>
        <mxCell id="lbHIWRgdnRPEPSIfCZuF-89" style="edgeStyle=orthogonalEdgeStyle;rounded=0;orthogonalLoop=1;jettySize=auto;html=1;exitX=1;exitY=0.25;exitDx=0;exitDy=0;entryX=0;entryY=0.5;entryDx=0;entryDy=0;" edge="1" parent="1" source="lbHIWRgdnRPEPSIfCZuF-43" target="lbHIWRgdnRPEPSIfCZuF-67">
          <mxGeometry relative="1" as="geometry" />
        </mxCell>
        <mxCell id="lbHIWRgdnRPEPSIfCZuF-43" value="R_d_1" style="rounded=0;whiteSpace=wrap;html=1;" vertex="1" parent="1">
          <mxGeometry x="200" y="440" width="40" height="80" as="geometry" />
        </mxCell>
        <mxCell id="lbHIWRgdnRPEPSIfCZuF-44" value="L_d_1" style="rounded=0;whiteSpace=wrap;html=1;" vertex="1" parent="1">
          <mxGeometry x="200" y="520" width="40" height="80" as="geometry" />
        </mxCell>
        <mxCell id="lbHIWRgdnRPEPSIfCZuF-45" value="R_d_2" style="rounded=0;whiteSpace=wrap;html=1;" vertex="1" parent="1">
          <mxGeometry x="360" y="440" width="40" height="80" as="geometry" />
        </mxCell>
        <mxCell id="lbHIWRgdnRPEPSIfCZuF-46" value="L_d_2" style="rounded=0;whiteSpace=wrap;html=1;" vertex="1" parent="1">
          <mxGeometry x="360" y="520" width="40" height="80" as="geometry" />
        </mxCell>
        <mxCell id="lbHIWRgdnRPEPSIfCZuF-93" style="edgeStyle=orthogonalEdgeStyle;rounded=0;orthogonalLoop=1;jettySize=auto;html=1;exitX=1;exitY=0.25;exitDx=0;exitDy=0;entryX=0;entryY=0.5;entryDx=0;entryDy=0;" edge="1" parent="1" source="lbHIWRgdnRPEPSIfCZuF-47" target="lbHIWRgdnRPEPSIfCZuF-74">
          <mxGeometry relative="1" as="geometry" />
        </mxCell>
        <mxCell id="lbHIWRgdnRPEPSIfCZuF-47" value="R1" style="rounded=0;whiteSpace=wrap;html=1;" vertex="1" parent="1">
          <mxGeometry x="520" y="440" width="40" height="80" as="geometry" />
        </mxCell>
        <mxCell id="lbHIWRgdnRPEPSIfCZuF-48" value="L1" style="rounded=0;whiteSpace=wrap;html=1;" vertex="1" parent="1">
          <mxGeometry x="520" y="520" width="40" height="80" as="geometry" />
        </mxCell>
        <mxCell id="lbHIWRgdnRPEPSIfCZuF-49" value="R0" style="rounded=0;whiteSpace=wrap;html=1;" vertex="1" parent="1">
          <mxGeometry x="680" y="440" width="40" height="80" as="geometry" />
        </mxCell>
        <mxCell id="lbHIWRgdnRPEPSIfCZuF-50" value="L0" style="rounded=0;whiteSpace=wrap;html=1;" vertex="1" parent="1">
          <mxGeometry x="680" y="520" width="40" height="80" as="geometry" />
        </mxCell>
        <mxCell id="lbHIWRgdnRPEPSIfCZuF-51" value="" style="shape=waypoint;sketch=0;fillStyle=solid;size=6;pointerEvents=1;points=[];fillColor=none;resizable=0;rotatable=0;perimeter=centerPerimeter;snapToPoint=1;" vertex="1" parent="1">
          <mxGeometry x="425" y="510" width="20" height="20" as="geometry" />
        </mxCell>
        <mxCell id="lbHIWRgdnRPEPSIfCZuF-52" value="" style="shape=waypoint;sketch=0;fillStyle=solid;size=6;pointerEvents=1;points=[];fillColor=none;resizable=0;rotatable=0;perimeter=centerPerimeter;snapToPoint=1;" vertex="1" parent="1">
          <mxGeometry x="445" y="510" width="20" height="20" as="geometry" />
        </mxCell>
        <mxCell id="lbHIWRgdnRPEPSIfCZuF-53" value="" style="shape=waypoint;sketch=0;fillStyle=solid;size=6;pointerEvents=1;points=[];fillColor=none;resizable=0;rotatable=0;perimeter=centerPerimeter;snapToPoint=1;" vertex="1" parent="1">
          <mxGeometry x="465" y="510" width="20" height="20" as="geometry" />
        </mxCell>
        <mxCell id="lbHIWRgdnRPEPSIfCZuF-83" style="edgeStyle=orthogonalEdgeStyle;rounded=0;orthogonalLoop=1;jettySize=auto;html=1;exitX=0.5;exitY=0;exitDx=0;exitDy=0;entryX=1;entryY=0.5;entryDx=0;entryDy=0;" edge="1" parent="1" source="lbHIWRgdnRPEPSIfCZuF-54" target="lbHIWRgdnRPEPSIfCZuF-58">
          <mxGeometry relative="1" as="geometry" />
        </mxCell>
        <mxCell id="lbHIWRgdnRPEPSIfCZuF-54" value="f_d" style="ellipse;whiteSpace=wrap;html=1;aspect=fixed;" vertex="1" parent="1">
          <mxGeometry x="120" y="500" width="40" height="40" as="geometry" />
        </mxCell>
        <mxCell id="lbHIWRgdnRPEPSIfCZuF-58" value="" style="shape=orEllipse;perimeter=ellipsePerimeter;whiteSpace=wrap;html=1;backgroundOutline=1;direction=south;" vertex="1" parent="1">
          <mxGeometry x="120" y="440" width="40" height="40" as="geometry" />
        </mxCell>
        <mxCell id="lbHIWRgdnRPEPSIfCZuF-61" value="n - bits" style="text;html=1;align=center;verticalAlign=middle;whiteSpace=wrap;rounded=0;rotation=90;" vertex="1" parent="1">
          <mxGeometry x="-10" y="465" width="60" height="30" as="geometry" />
        </mxCell>
        <mxCell id="lbHIWRgdnRPEPSIfCZuF-62" value="n - bits" style="text;html=1;align=center;verticalAlign=middle;whiteSpace=wrap;rounded=0;rotation=90;" vertex="1" parent="1">
          <mxGeometry x="-10" y="545" width="60" height="30" as="geometry" />
        </mxCell>
        <mxCell id="lbHIWRgdnRPEPSIfCZuF-90" style="edgeStyle=orthogonalEdgeStyle;rounded=0;orthogonalLoop=1;jettySize=auto;html=1;exitX=0.5;exitY=0;exitDx=0;exitDy=0;entryX=0.5;entryY=1;entryDx=0;entryDy=0;" edge="1" parent="1" source="lbHIWRgdnRPEPSIfCZuF-63" target="lbHIWRgdnRPEPSIfCZuF-67">
          <mxGeometry relative="1" as="geometry" />
        </mxCell>
        <mxCell id="lbHIWRgdnRPEPSIfCZuF-63" value="f_d-1" style="ellipse;whiteSpace=wrap;html=1;aspect=fixed;" vertex="1" parent="1">
          <mxGeometry x="280" y="500" width="40" height="40" as="geometry" />
        </mxCell>
        <mxCell id="lbHIWRgdnRPEPSIfCZuF-67" value="" style="shape=orEllipse;perimeter=ellipsePerimeter;whiteSpace=wrap;html=1;backgroundOutline=1;" vertex="1" parent="1">
          <mxGeometry x="280" y="440" width="40" height="40" as="geometry" />
        </mxCell>
        <mxCell id="lbHIWRgdnRPEPSIfCZuF-94" style="edgeStyle=orthogonalEdgeStyle;rounded=0;orthogonalLoop=1;jettySize=auto;html=1;exitX=0.5;exitY=0;exitDx=0;exitDy=0;entryX=0.5;entryY=1;entryDx=0;entryDy=0;" edge="1" parent="1" source="lbHIWRgdnRPEPSIfCZuF-70" target="lbHIWRgdnRPEPSIfCZuF-74">
          <mxGeometry relative="1" as="geometry" />
        </mxCell>
        <mxCell id="lbHIWRgdnRPEPSIfCZuF-70" value="f_1" style="ellipse;whiteSpace=wrap;html=1;aspect=fixed;" vertex="1" parent="1">
          <mxGeometry x="600" y="500" width="40" height="40" as="geometry" />
        </mxCell>
        <mxCell id="lbHIWRgdnRPEPSIfCZuF-74" value="" style="shape=orEllipse;perimeter=ellipsePerimeter;whiteSpace=wrap;html=1;backgroundOutline=1;" vertex="1" parent="1">
          <mxGeometry x="600" y="440" width="40" height="40" as="geometry" />
        </mxCell>
        <mxCell id="lbHIWRgdnRPEPSIfCZuF-77" value="Output" style="text;html=1;align=center;verticalAlign=middle;whiteSpace=wrap;rounded=0;fillColor=#e1d5e7;strokeColor=#9673a6;" vertex="1" parent="1">
          <mxGeometry x="30" y="610" width="60" height="30" as="geometry" />
        </mxCell>
        <mxCell id="lbHIWRgdnRPEPSIfCZuF-78" value="Input" style="text;html=1;align=center;verticalAlign=middle;whiteSpace=wrap;rounded=0;fillColor=#f8cecc;strokeColor=#b85450;" vertex="1" parent="1">
          <mxGeometry x="670" y="610" width="60" height="30" as="geometry" />
        </mxCell>
        <mxCell id="lbHIWRgdnRPEPSIfCZuF-81" value="" style="endArrow=classic;html=1;rounded=0;exitX=1;exitY=0.75;exitDx=0;exitDy=0;entryX=0;entryY=0.25;entryDx=0;entryDy=0;" edge="1" parent="1" source="lbHIWRgdnRPEPSIfCZuF-42" target="lbHIWRgdnRPEPSIfCZuF-43">
          <mxGeometry width="50" height="50" relative="1" as="geometry">
            <mxPoint x="360" y="330" as="sourcePoint" />
            <mxPoint x="410" y="280" as="targetPoint" />
            <Array as="points">
              <mxPoint x="170" y="580" />
            </Array>
          </mxGeometry>
        </mxCell>
        <mxCell id="lbHIWRgdnRPEPSIfCZuF-82" value="" style="endArrow=classic;html=1;rounded=0;entryX=0.5;entryY=1;entryDx=0;entryDy=0;" edge="1" parent="1" target="lbHIWRgdnRPEPSIfCZuF-54">
          <mxGeometry width="50" height="50" relative="1" as="geometry">
            <mxPoint x="140" y="580" as="sourcePoint" />
            <mxPoint x="410" y="340" as="targetPoint" />
          </mxGeometry>
        </mxCell>
        <mxCell id="lbHIWRgdnRPEPSIfCZuF-87" value="" style="endArrow=classic;html=1;rounded=0;exitX=0.5;exitY=0;exitDx=0;exitDy=0;entryX=0;entryY=0.75;entryDx=0;entryDy=0;" edge="1" parent="1" source="lbHIWRgdnRPEPSIfCZuF-58" target="lbHIWRgdnRPEPSIfCZuF-44">
          <mxGeometry width="50" height="50" relative="1" as="geometry">
            <mxPoint x="360" y="390" as="sourcePoint" />
            <mxPoint x="410" y="340" as="targetPoint" />
            <Array as="points">
              <mxPoint x="170" y="460" />
            </Array>
          </mxGeometry>
        </mxCell>
        <mxCell id="lbHIWRgdnRPEPSIfCZuF-88" value="" style="endArrow=classic;html=1;rounded=0;exitX=1;exitY=0.75;exitDx=0;exitDy=0;entryX=0;entryY=0.25;entryDx=0;entryDy=0;" edge="1" parent="1" source="lbHIWRgdnRPEPSIfCZuF-44" target="lbHIWRgdnRPEPSIfCZuF-45">
          <mxGeometry width="50" height="50" relative="1" as="geometry">
            <mxPoint x="360" y="390" as="sourcePoint" />
            <mxPoint x="410" y="340" as="targetPoint" />
            <Array as="points">
              <mxPoint x="310" y="580" />
              <mxPoint x="330" y="580" />
            </Array>
          </mxGeometry>
        </mxCell>
        <mxCell id="lbHIWRgdnRPEPSIfCZuF-91" value="" style="endArrow=classic;html=1;rounded=0;entryX=0.5;entryY=1;entryDx=0;entryDy=0;" edge="1" parent="1" target="lbHIWRgdnRPEPSIfCZuF-63">
          <mxGeometry width="50" height="50" relative="1" as="geometry">
            <mxPoint x="300" y="580" as="sourcePoint" />
            <mxPoint x="410" y="340" as="targetPoint" />
          </mxGeometry>
        </mxCell>
        <mxCell id="lbHIWRgdnRPEPSIfCZuF-92" value="" style="endArrow=classic;html=1;rounded=0;exitX=1;exitY=0.5;exitDx=0;exitDy=0;entryX=0;entryY=0.75;entryDx=0;entryDy=0;" edge="1" parent="1" source="lbHIWRgdnRPEPSIfCZuF-67" target="lbHIWRgdnRPEPSIfCZuF-46">
          <mxGeometry width="50" height="50" relative="1" as="geometry">
            <mxPoint x="360" y="390" as="sourcePoint" />
            <mxPoint x="410" y="340" as="targetPoint" />
            <Array as="points">
              <mxPoint x="330" y="460" />
            </Array>
          </mxGeometry>
        </mxCell>
        <mxCell id="lbHIWRgdnRPEPSIfCZuF-95" value="" style="endArrow=classic;html=1;rounded=0;exitX=1;exitY=0.75;exitDx=0;exitDy=0;entryX=0;entryY=0.25;entryDx=0;entryDy=0;" edge="1" parent="1" source="lbHIWRgdnRPEPSIfCZuF-48" target="lbHIWRgdnRPEPSIfCZuF-49">
          <mxGeometry width="50" height="50" relative="1" as="geometry">
            <mxPoint x="360" y="390" as="sourcePoint" />
            <mxPoint x="410" y="340" as="targetPoint" />
            <Array as="points">
              <mxPoint x="620" y="580" />
              <mxPoint x="650" y="580" />
            </Array>
          </mxGeometry>
        </mxCell>
        <mxCell id="lbHIWRgdnRPEPSIfCZuF-96" value="" style="endArrow=classic;html=1;rounded=0;entryX=0;entryY=0.75;entryDx=0;entryDy=0;exitX=1;exitY=0.5;exitDx=0;exitDy=0;" edge="1" parent="1" source="lbHIWRgdnRPEPSIfCZuF-74" target="lbHIWRgdnRPEPSIfCZuF-50">
          <mxGeometry width="50" height="50" relative="1" as="geometry">
            <mxPoint x="360" y="390" as="sourcePoint" />
            <mxPoint x="410" y="340" as="targetPoint" />
            <Array as="points">
              <mxPoint x="650" y="460" />
            </Array>
          </mxGeometry>
        </mxCell>
        <mxCell id="lbHIWRgdnRPEPSIfCZuF-97" value="" style="endArrow=classic;html=1;rounded=0;entryX=0.5;entryY=1;entryDx=0;entryDy=0;" edge="1" parent="1" target="lbHIWRgdnRPEPSIfCZuF-70">
          <mxGeometry width="50" height="50" relative="1" as="geometry">
            <mxPoint x="620" y="580" as="sourcePoint" />
            <mxPoint x="410" y="340" as="targetPoint" />
          </mxGeometry>
        </mxCell>
        <mxCell id="lbHIWRgdnRPEPSIfCZuF-98" value="&lt;b&gt;Encryption&lt;/b&gt;" style="text;html=1;align=center;verticalAlign=middle;whiteSpace=wrap;rounded=0;fillColor=#fa6800;fontColor=#000000;strokeColor=#C73500;" vertex="1" parent="1">
          <mxGeometry x="340" y="120" width="70" height="30" as="geometry" />
        </mxCell>
        <mxCell id="lbHIWRgdnRPEPSIfCZuF-99" value="&lt;b&gt;Decryption&lt;/b&gt;" style="text;html=1;align=center;verticalAlign=middle;whiteSpace=wrap;rounded=0;fillColor=#fa6800;fontColor=#000000;strokeColor=#C73500;" vertex="1" parent="1">
          <mxGeometry x="340" y="400" width="70" height="30" as="geometry" />
        </mxCell>
      </root>
    </mxGraphModel>
  </diagram>
</mxfile>
